<?xml version="1.0" encoding="UTF-8" standalone="no"?>
<!DOCTYPE svg PUBLIC "-//W3C//DTD SVG 1.1//EN" "http://www.w3.org/Graphics/SVG/1.1/DTD/svg11.dtd">
<svg width="100%" height="100%" viewBox="0 0 1280 760" version="1.1" xmlns="http://www.w3.org/2000/svg" xmlns:xlink="http://www.w3.org/1999/xlink" xml:space="preserve" xmlns:serif="http://www.serif.com/" style="fill-rule:evenodd;clip-rule:evenodd;stroke-linejoin:round;stroke-miterlimit:2;">
    <g transform="matrix(1.0231,0,0,1.01619,20,20)">
        <g id="Artboard1">
            <rect x="0" y="0" width="1212" height="708.528" style="fill:none;"/>
            <g transform="matrix(1.00016,0,0,1,0,0)">
                <g transform="matrix(0.977265,0,0,0.984068,-19.5467,-19.6814)">
                    <path d="M1280,106.4L1173.6,0L106.4,0L0,106.4L0,653.6L106.4,760L1173.6,760L1280,653.6L1280,106.4Z" style="fill:rgb(235,235,235);"/>
                </g>
                <g transform="matrix(1.01059,0,0,1.01865,136.814,137.767)">
                    <g transform="matrix(0.967024,0,0,0.966046,-135.38,-135.244)">
                        <path d="M1100,238L914,238L914,482L1100,482L1002,580L914,580L816,482L816,238L914,140L1002,140L1100,238Z"/>
                    </g>
                    <g transform="matrix(0.967024,0,0,0.966046,-135.38,-135.244)">
                        <path d="M532,238L630,140L717.986,140L816,238L816,326L718,412L630,326L718,326L718,238L630,238L630,580L532,482L532,238Z"/>
                    </g>
                    <g transform="matrix(0.967024,0,0,0.966046,-135.38,-135.244)">
                        <path d="M532,238L532,482L434,580L434,262L336,360L238,262L238,580L140,482L140,238L238,140L336,238L434,140L532,238Z"/>
                    </g>
                </g>
                <path d="M605.906,94.488L93.818,94.488L93.818,259.776L0,354.264L0,94.488L93.818,0L512.087,0L605.906,94.488Z"/>
                <path d="M93.818,614.039L512.087,614.039L605.906,708.528L93.818,708.528L0,614.039L0,448.752L93.818,354.264L93.818,614.039Z"/>
                <path d="M1117.99,708.528L699.723,708.528L605.906,614.039L1117.99,614.039L1117.99,448.752L1211.81,354.264L1211.81,614.039L1117.99,708.528Z"/>
                <path d="M1211.81,259.776L1117.99,354.264L1117.99,94.488L699.723,94.488L605.906,0L1117.99,0L1211.81,94.488L1211.81,259.776Z"/>
            </g>
        </g>
    </g>
</svg>
