<?xml version="1.0" encoding="UTF-8" standalone="no"?>
<!DOCTYPE svg PUBLIC "-//W3C//DTD SVG 1.1//EN" "http://www.w3.org/Graphics/SVG/1.1/DTD/svg11.dtd">
<svg width="100%" height="100%" viewBox="0 0 512 512" version="1.1" xmlns="http://www.w3.org/2000/svg" xmlns:xlink="http://www.w3.org/1999/xlink" xml:space="preserve" xmlns:serif="http://www.serif.com/" style="fill-rule:evenodd;clip-rule:evenodd;stroke-linecap:round;stroke-linejoin:round;stroke-miterlimit:1.5;">
    <g transform="matrix(0.910156,-0.0768229,-0.0768229,0.910156,40.1667,45.1667)">
        <path d="M64,448L448,64" style="fill:none;stroke:black;stroke-width:36px;"/>
    </g>
    <g transform="matrix(1.94387,5.1637e-16,-5.48486e-16,1.94387,-628.299,-249.244)">
        <path d="M488.422,179.578L449.081,194.056L431.5,156L413.919,194.056L374.578,179.578L389.056,218.919L351,236.5L389.056,254.081L374.578,293.422" style="fill:none;stroke:black;stroke-width:15.43px;"/>
    </g>
    <g transform="matrix(-2.9879e-16,1.62654,-1.62654,-2.9879e-16,1077.59,-85.3838)">
        <path d="M222.664,462.564C230.724,459.23 239.706,457.1 249.5,457.1C281.34,457.1 322.349,502.042 322.349,502.042C322.349,502.042 331,479.806 331,465.5C331,420.519 294.481,384 249.5,384C220.901,384 195.723,398.763 181.176,421.076" style="fill:none;stroke:black;stroke-width:18.44px;"/>
    </g>
</svg>
